<svg xmlns="http://www.w3.org/2000/svg" xmlns:xlink="http://www.w3.org/1999/xlink" width="500" zoomAndPan="magnify" viewBox="0 0 375 374.999991" height="500" preserveAspectRatio="xMidYMid meet" version="1.0"><defs><g/><clipPath id="76824d60f3"><path d="M 91.394531 156.140625 L 164.894531 156.140625 L 164.894531 210.890625 L 91.394531 210.890625 Z M 91.394531 156.140625 " clip-rule="nonzero"/></clipPath><clipPath id="5d63106e0a"><path d="M 0.453125 0.140625 L 37 0.140625 L 37 42 L 0.453125 42 Z M 0.453125 0.140625 " clip-rule="nonzero"/></clipPath><clipPath id="08f2a61eb7"><path d="M 10 3 L 73.878906 3 L 73.878906 54.890625 L 10 54.890625 Z M 10 3 " clip-rule="nonzero"/></clipPath><clipPath id="adbff0945e"><rect x="0" width="74" y="0" height="55"/></clipPath></defs><rect x="-37.5" width="450" fill="#ffffff" y="-37.499999" height="449.999989" fill-opacity="1"/><rect x="-37.5" width="450" fill="#b4b4b4" y="-37.499999" height="449.999989" fill-opacity="1"/><g clip-path="url(#76824d60f3)"><g transform="matrix(1, 0, 0, 1, 91, 156)"><g clip-path="url(#adbff0945e)"><g clip-path="url(#5d63106e0a)"><path fill="#22c177" d="M 33.394531 0.140625 L 36.289062 5.507812 L 33.011719 7.105469 L 31.894531 4.761719 L 8.101562 16.128906 C 14.457031 21.921875 18.945312 30.320312 21.433594 41.097656 L 21.289062 41.140625 C 17.820312 32.070312 10.824219 23.292969 0.488281 15.0625 L 0.390625 14.984375 Z M 33.394531 0.140625 " fill-opacity="1" fill-rule="nonzero"/></g><path fill="#22c177" d="M 37.375 41.617188 L 37.367188 41.660156 L 37.328125 41.675781 C 36.734375 41.886719 36.078125 42.183594 35.386719 42.546875 L 35.285156 42.601562 L 35.273438 42.488281 C 34.304688 33.523438 32.289062 26.464844 29.285156 21.515625 L 29.238281 21.4375 L 60.078125 8.128906 L 60.089844 8.230469 C 60.667969 13.21875 60.785156 18.324219 60.4375 23.398438 L 60.4375 23.425781 C 60.4375 23.425781 60.421875 23.441406 60.421875 23.441406 C 59.773438 24.242188 59.019531 25.105469 58.1875 26.011719 L 58.050781 26.160156 L 58.050781 25.960938 C 58.121094 21.304688 57.972656 17 57.609375 13.164062 L 35.160156 23.273438 C 37.371094 31.90625 38.121094 38.078125 37.378906 41.617188 Z M 37.375 41.617188 " fill-opacity="1" fill-rule="nonzero"/><g clip-path="url(#08f2a61eb7)"><path fill="#22c177" d="M 14.191406 33.265625 C 11.269531 40.023438 11.53125 44.957031 14.949219 47.53125 C 16.71875 48.863281 19.238281 49.492188 22.234375 49.492188 C 30.636719 49.492188 42.785156 44.570312 52.621094 36.507812 C 58.476562 31.710938 62.941406 26.542969 65.539062 21.570312 C 67.960938 16.925781 68.582031 12.6875 67.292969 9.628906 C 65.636719 5.707031 61.003906 3.964844 54.253906 4.726562 L 54.230469 4.578125 C 61.816406 3.300781 67.269531 3.957031 70.441406 6.519531 C 72.511719 8.195312 73.632812 10.707031 73.777344 13.984375 C 73.953125 17.933594 72.328125 22.730469 69.074219 27.863281 C 66.160156 32.457031 62.058594 37.035156 57.8125 40.425781 C 49.554688 47.027344 38.230469 52.785156 30.882812 54.117188 C 30.277344 54.226562 27.664062 54.664062 24.496094 54.664062 C 20.15625 54.664062 14.777344 53.84375 12.109375 50.226562 C 9.421875 46.582031 10.078125 40.851562 14.054688 33.199219 Z M 14.191406 33.265625 " fill-opacity="1" fill-rule="nonzero"/></g><path fill="#22c177" d="M 44 8.894531 L 22.792969 19.421875 C 26.246094 25.382812 28.359375 33.355469 29.074219 43.125 L 29.078125 43.195312 L 29.011719 43.207031 C 28.753906 43.25 28.542969 43.300781 28.359375 43.363281 L 28.28125 43.394531 L 28.261719 43.3125 C 25.625 32.128906 21.476562 23.550781 15.929688 17.820312 L 15.855469 17.742188 L 46.476562 3.554688 L 49.394531 10.328125 L 45.601562 12.078125 L 43.996094 8.894531 Z M 44 8.894531 " fill-opacity="1" fill-rule="nonzero"/></g></g></g><g fill="#151414" fill-opacity="1"><g transform="translate(168.867884, 185.249988)"><g><path d="M 26.421875 -23.328125 L 26.421875 0 L 23.359375 0 L 23.359375 -17.390625 L 15.609375 0 L 13.453125 0 L 5.65625 -17.421875 L 5.65625 0 L 2.59375 0 L 2.59375 -23.328125 L 5.890625 -23.328125 L 14.53125 -4.046875 L 23.15625 -23.328125 Z M 26.421875 -23.328125 "/></g></g></g><g fill="#151414" fill-opacity="1"><g transform="translate(195.416081, 185.249988)"><g><path d="M 10.65625 0.296875 C 8.925781 0.296875 7.359375 -0.09375 5.953125 -0.875 C 4.546875 -1.664062 3.441406 -2.785156 2.640625 -4.234375 C 1.847656 -5.679688 1.453125 -7.359375 1.453125 -9.265625 C 1.453125 -11.148438 1.859375 -12.816406 2.671875 -14.265625 C 3.492188 -15.722656 4.613281 -16.835938 6.03125 -17.609375 C 7.445312 -18.378906 9.03125 -18.765625 10.78125 -18.765625 C 12.53125 -18.765625 14.113281 -18.378906 15.53125 -17.609375 C 16.945312 -16.835938 18.066406 -15.734375 18.890625 -14.296875 C 19.710938 -12.859375 20.125 -11.179688 20.125 -9.265625 C 20.125 -7.359375 19.703125 -5.679688 18.859375 -4.234375 C 18.015625 -2.785156 16.875 -1.664062 15.4375 -0.875 C 14 -0.09375 12.40625 0.296875 10.65625 0.296875 Z M 10.65625 -2.390625 C 11.75 -2.390625 12.78125 -2.644531 13.75 -3.15625 C 14.71875 -3.675781 15.5 -4.453125 16.09375 -5.484375 C 16.6875 -6.523438 16.984375 -7.785156 16.984375 -9.265625 C 16.984375 -10.753906 16.691406 -12.015625 16.109375 -13.046875 C 15.523438 -14.078125 14.757812 -14.84375 13.8125 -15.34375 C 12.875 -15.851562 11.851562 -16.109375 10.75 -16.109375 C 9.625 -16.109375 8.59375 -15.851562 7.65625 -15.34375 C 6.726562 -14.84375 5.984375 -14.078125 5.421875 -13.046875 C 4.859375 -12.015625 4.578125 -10.753906 4.578125 -9.265625 C 4.578125 -7.765625 4.851562 -6.492188 5.40625 -5.453125 C 5.957031 -4.421875 6.691406 -3.648438 7.609375 -3.140625 C 8.535156 -2.640625 9.550781 -2.390625 10.65625 -2.390625 Z M 10.65625 -2.390625 "/></g></g></g><g fill="#151414" fill-opacity="1"><g transform="translate(214.518477, 185.249988)"><g><path d="M 11.59375 -18.8125 C 13.84375 -18.8125 15.660156 -18.128906 17.046875 -16.765625 C 18.441406 -15.410156 19.140625 -13.453125 19.140625 -10.890625 L 19.140625 0 L 16.109375 0 L 16.109375 -10.453125 C 16.109375 -12.296875 15.644531 -13.703125 14.71875 -14.671875 C 13.800781 -15.648438 12.546875 -16.140625 10.953125 -16.140625 C 9.335938 -16.140625 8.050781 -15.632812 7.09375 -14.625 C 6.132812 -13.613281 5.65625 -12.144531 5.65625 -10.21875 L 5.65625 0 L 2.59375 0 L 2.59375 -18.46875 L 5.65625 -18.46875 L 5.65625 -15.84375 C 6.269531 -16.78125 7.097656 -17.507812 8.140625 -18.03125 C 9.179688 -18.550781 10.332031 -18.8125 11.59375 -18.8125 Z M 11.59375 -18.8125 "/></g></g></g><g fill="#151414" fill-opacity="1"><g transform="translate(233.620874, 185.249988)"><g><path d="M 19.453125 -9.9375 C 19.453125 -9.351562 19.414062 -8.738281 19.34375 -8.09375 L 4.578125 -8.09375 C 4.691406 -6.269531 5.316406 -4.847656 6.453125 -3.828125 C 7.585938 -2.804688 8.960938 -2.296875 10.578125 -2.296875 C 11.910156 -2.296875 13.019531 -2.601562 13.90625 -3.21875 C 14.789062 -3.832031 15.410156 -4.660156 15.765625 -5.703125 L 19.078125 -5.703125 C 18.578125 -3.921875 17.585938 -2.472656 16.109375 -1.359375 C 14.628906 -0.253906 12.785156 0.296875 10.578125 0.296875 C 8.828125 0.296875 7.257812 -0.09375 5.875 -0.875 C 4.5 -1.664062 3.414062 -2.785156 2.625 -4.234375 C 1.84375 -5.679688 1.453125 -7.359375 1.453125 -9.265625 C 1.453125 -11.179688 1.832031 -12.859375 2.59375 -14.296875 C 3.351562 -15.734375 4.425781 -16.835938 5.8125 -17.609375 C 7.195312 -18.378906 8.785156 -18.765625 10.578125 -18.765625 C 12.335938 -18.765625 13.890625 -18.382812 15.234375 -17.625 C 16.578125 -16.863281 17.613281 -15.8125 18.34375 -14.46875 C 19.082031 -13.132812 19.453125 -11.625 19.453125 -9.9375 Z M 16.28125 -10.578125 C 16.28125 -11.742188 16.019531 -12.75 15.5 -13.59375 C 14.988281 -14.4375 14.285156 -15.078125 13.390625 -15.515625 C 12.503906 -15.953125 11.523438 -16.171875 10.453125 -16.171875 C 8.898438 -16.171875 7.578125 -15.675781 6.484375 -14.6875 C 5.398438 -13.707031 4.78125 -12.335938 4.625 -10.578125 Z M 16.28125 -10.578125 "/></g></g></g><g fill="#151414" fill-opacity="1"><g transform="translate(252.049442, 185.249988)"><g><path d="M 18.5 -18.46875 L 7.375 8.703125 L 4.21875 8.703125 L 7.859375 -0.203125 L 0.40625 -18.46875 L 3.8125 -18.46875 L 9.609375 -3.5 L 15.328125 -18.46875 Z M 18.5 -18.46875 "/></g></g></g><g fill="#151414" fill-opacity="1"><g transform="translate(268.559284, 185.249988)"><g/></g></g><g fill="#151414" fill-opacity="1"><g transform="translate(168.867884, 212.999986)"><g><path d="M 26.421875 -23.328125 L 26.421875 0 L 23.359375 0 L 23.359375 -17.390625 L 15.609375 0 L 13.453125 0 L 5.65625 -17.421875 L 5.65625 0 L 2.59375 0 L 2.59375 -23.328125 L 5.890625 -23.328125 L 14.53125 -4.046875 L 23.15625 -23.328125 Z M 26.421875 -23.328125 "/></g></g></g><g fill="#151414" fill-opacity="1"><g transform="translate(195.416081, 212.999986)"><g><path d="M 19.453125 -9.9375 C 19.453125 -9.351562 19.414062 -8.738281 19.34375 -8.09375 L 4.578125 -8.09375 C 4.691406 -6.269531 5.316406 -4.847656 6.453125 -3.828125 C 7.585938 -2.804688 8.960938 -2.296875 10.578125 -2.296875 C 11.910156 -2.296875 13.019531 -2.601562 13.90625 -3.21875 C 14.789062 -3.832031 15.410156 -4.660156 15.765625 -5.703125 L 19.078125 -5.703125 C 18.578125 -3.921875 17.585938 -2.472656 16.109375 -1.359375 C 14.628906 -0.253906 12.785156 0.296875 10.578125 0.296875 C 8.828125 0.296875 7.257812 -0.09375 5.875 -0.875 C 4.5 -1.664062 3.414062 -2.785156 2.625 -4.234375 C 1.84375 -5.679688 1.453125 -7.359375 1.453125 -9.265625 C 1.453125 -11.179688 1.832031 -12.859375 2.59375 -14.296875 C 3.351562 -15.734375 4.425781 -16.835938 5.8125 -17.609375 C 7.195312 -18.378906 8.785156 -18.765625 10.578125 -18.765625 C 12.335938 -18.765625 13.890625 -18.382812 15.234375 -17.625 C 16.578125 -16.863281 17.613281 -15.8125 18.34375 -14.46875 C 19.082031 -13.132812 19.453125 -11.625 19.453125 -9.9375 Z M 16.28125 -10.578125 C 16.28125 -11.742188 16.019531 -12.75 15.5 -13.59375 C 14.988281 -14.4375 14.285156 -15.078125 13.390625 -15.515625 C 12.503906 -15.953125 11.523438 -16.171875 10.453125 -16.171875 C 8.898438 -16.171875 7.578125 -15.675781 6.484375 -14.6875 C 5.398438 -13.707031 4.78125 -12.335938 4.625 -10.578125 Z M 16.28125 -10.578125 "/></g></g></g><g fill="#151414" fill-opacity="1"><g transform="translate(213.844649, 212.999986)"><g><path d="M 11.59375 -18.8125 C 13.84375 -18.8125 15.660156 -18.128906 17.046875 -16.765625 C 18.441406 -15.410156 19.140625 -13.453125 19.140625 -10.890625 L 19.140625 0 L 16.109375 0 L 16.109375 -10.453125 C 16.109375 -12.296875 15.644531 -13.703125 14.71875 -14.671875 C 13.800781 -15.648438 12.546875 -16.140625 10.953125 -16.140625 C 9.335938 -16.140625 8.050781 -15.632812 7.09375 -14.625 C 6.132812 -13.613281 5.65625 -12.144531 5.65625 -10.21875 L 5.65625 0 L 2.59375 0 L 2.59375 -18.46875 L 5.65625 -18.46875 L 5.65625 -15.84375 C 6.269531 -16.78125 7.097656 -17.507812 8.140625 -18.03125 C 9.179688 -18.550781 10.332031 -18.8125 11.59375 -18.8125 Z M 11.59375 -18.8125 "/></g></g></g><g fill="#151414" fill-opacity="1"><g transform="translate(232.947046, 212.999986)"><g><path d="M 6.34375 -15.9375 L 6.34375 -5.0625 C 6.34375 -4.15625 6.53125 -3.515625 6.90625 -3.140625 C 7.289062 -2.773438 7.953125 -2.59375 8.890625 -2.59375 L 11.15625 -2.59375 L 11.15625 0 L 8.390625 0 C 6.679688 0 5.398438 -0.390625 4.546875 -1.171875 C 3.691406 -1.960938 3.265625 -3.257812 3.265625 -5.0625 L 3.265625 -15.9375 L 0.875 -15.9375 L 0.875 -18.46875 L 3.265625 -18.46875 L 3.265625 -23.125 L 6.34375 -23.125 L 6.34375 -18.46875 L 11.15625 -18.46875 L 11.15625 -15.9375 Z M 6.34375 -15.9375 "/></g></g></g><g fill="#151414" fill-opacity="1"><g transform="translate(242.750615, 212.999986)"><g><path d="M 10.65625 0.296875 C 8.925781 0.296875 7.359375 -0.09375 5.953125 -0.875 C 4.546875 -1.664062 3.441406 -2.785156 2.640625 -4.234375 C 1.847656 -5.679688 1.453125 -7.359375 1.453125 -9.265625 C 1.453125 -11.148438 1.859375 -12.816406 2.671875 -14.265625 C 3.492188 -15.722656 4.613281 -16.835938 6.03125 -17.609375 C 7.445312 -18.378906 9.03125 -18.765625 10.78125 -18.765625 C 12.53125 -18.765625 14.113281 -18.378906 15.53125 -17.609375 C 16.945312 -16.835938 18.066406 -15.734375 18.890625 -14.296875 C 19.710938 -12.859375 20.125 -11.179688 20.125 -9.265625 C 20.125 -7.359375 19.703125 -5.679688 18.859375 -4.234375 C 18.015625 -2.785156 16.875 -1.664062 15.4375 -0.875 C 14 -0.09375 12.40625 0.296875 10.65625 0.296875 Z M 10.65625 -2.390625 C 11.75 -2.390625 12.78125 -2.644531 13.75 -3.15625 C 14.71875 -3.675781 15.5 -4.453125 16.09375 -5.484375 C 16.6875 -6.523438 16.984375 -7.785156 16.984375 -9.265625 C 16.984375 -10.753906 16.691406 -12.015625 16.109375 -13.046875 C 15.523438 -14.078125 14.757812 -14.84375 13.8125 -15.34375 C 12.875 -15.851562 11.851562 -16.109375 10.75 -16.109375 C 9.625 -16.109375 8.59375 -15.851562 7.65625 -15.34375 C 6.726562 -14.84375 5.984375 -14.078125 5.421875 -13.046875 C 4.859375 -12.015625 4.578125 -10.753906 4.578125 -9.265625 C 4.578125 -7.765625 4.851562 -6.492188 5.40625 -5.453125 C 5.957031 -4.421875 6.691406 -3.648438 7.609375 -3.140625 C 8.535156 -2.640625 9.550781 -2.390625 10.65625 -2.390625 Z M 10.65625 -2.390625 "/></g></g></g><g fill="#151414" fill-opacity="1"><g transform="translate(261.853012, 212.999986)"><g><path d="M 5.65625 -15.46875 C 6.195312 -16.519531 6.96875 -17.335938 7.96875 -17.921875 C 8.96875 -18.515625 10.1875 -18.8125 11.625 -18.8125 L 11.625 -15.640625 L 10.8125 -15.640625 C 7.375 -15.640625 5.65625 -13.773438 5.65625 -10.046875 L 5.65625 0 L 2.59375 0 L 2.59375 -18.46875 L 5.65625 -18.46875 Z M 5.65625 -15.46875 "/></g></g></g></svg>